<svg xmlns="http://www.w3.org/2000/svg" xmlns:xlink="http://www.w3.org/1999/xlink" width="500" zoomAndPan="magnify" viewBox="0 0 375 374.999991" height="500" preserveAspectRatio="xMidYMid meet" version="1.0"><defs><g/><clipPath id="879cf66c80"><path d="M 80.078125 128.050781 L 206.828125 128.050781 L 206.828125 215.050781 L 80.078125 215.050781 Z M 80.078125 128.050781 " clip-rule="nonzero"/></clipPath></defs><g clip-path="url(#879cf66c80)"><path fill="#ff9202" d="M 352.902344 210.457031 C 354.257812 210.457031 355.359375 211.558594 355.359375 212.914062 C 355.359375 214.273438 354.257812 215.375 352.902344 215.375 L 100.464844 215.375 C 98.035156 215.375 95.824219 214.378906 94.226562 212.78125 C 92.628906 211.183594 91.632812 208.972656 91.632812 206.542969 L 91.632812 175.488281 L 87.253906 175.488281 C 85.542969 175.488281 84.132812 175.039062 83.035156 174.292969 C 81.816406 173.472656 81.011719 172.308594 80.605469 170.984375 L 80.601562 170.988281 C 80.226562 169.761719 80.214844 168.40625 80.554688 167.097656 C 80.953125 165.53125 81.859375 164.003906 83.230469 162.820312 L 120.867188 130.378906 C 122.667969 128.824219 125.003906 128.050781 127.316406 128.050781 C 129.625 128.050781 131.960938 128.824219 133.761719 130.378906 L 159.054688 152.253906 C 160.078125 153.140625 160.191406 154.6875 159.304688 155.710938 C 158.421875 156.734375 156.871094 156.847656 155.847656 155.960938 L 130.554688 134.085938 C 129.691406 133.339844 128.515625 132.96875 127.316406 132.96875 C 126.117188 132.96875 124.9375 133.339844 124.074219 134.085938 L 86.4375 166.53125 C 85.84375 167.039062 85.460938 167.671875 85.296875 168.304688 C 85.183594 168.75 85.179688 169.179688 85.289062 169.546875 L 85.289062 169.554688 C 85.371094 169.820312 85.535156 170.054688 85.78125 170.222656 C 86.101562 170.4375 86.585938 170.570312 87.253906 170.570312 L 94.09375 170.570312 C 95.449219 170.570312 96.550781 171.671875 96.550781 173.027344 L 96.550781 206.542969 C 96.550781 207.617188 96.992188 208.597656 97.703125 209.304688 C 98.414062 210.015625 99.390625 210.457031 100.464844 210.457031 Z M 352.902344 210.457031 " fill-opacity="1" fill-rule="nonzero"/></g><g fill="#002f6d" fill-opacity="1"><g transform="translate(108.727416, 195.971706)"><g><path d="M 2.203125 -2.84375 L 0.640625 -3.953125 L 2.203125 -5.078125 L 0.765625 -6.6875 L 2.203125 -8.28125 L 0.640625 -9.640625 L 2.203125 -11 L 1.40625 -12.359375 L 2.203125 -13.71875 L 1.28125 -14.515625 L 2.203125 -15.3125 L 1.359375 -16.84375 L 2.203125 -18.359375 L 1.234375 -19.953125 L 2.203125 -21.5625 L 1.078125 -22.6875 L 2.203125 -23.796875 L 0.921875 -24.765625 L 2.203125 -25.71875 L 1.359375 -27.203125 L 2.875 -28 L 4 -28.875 L 5.125 -28 L 6.15625 -29.203125 L 7.15625 -28 L 8.84375 -28.84375 L 10.515625 -28 L 11.71875 -26.875 L 11.359375 -25.28125 L 12.234375 -23.765625 L 11.359375 -22.28125 L 12.046875 -20.765625 L 11.359375 -19.234375 L 12.046875 -18.796875 L 12.359375 -19.40625 L 14.125 -19.953125 L 14.921875 -21.40625 L 16.40625 -20.6875 L 17.484375 -21.71875 L 18.640625 -20.765625 L 20.4375 -21.875 L 21.40625 -19.953125 L 23.203125 -19.640625 L 23.765625 -17.875 L 25 -17.359375 L 24.765625 -16.046875 L 26.3125 -15.484375 L 25.234375 -14.203125 L 26.40625 -12.71875 L 25.40625 -11.15625 L 26.59375 -9.484375 L 25.40625 -7.796875 L 26.796875 -6.921875 L 25.40625 -6.046875 L 26.4375 -4.515625 L 25.40625 -3 L 26.515625 -2.046875 L 25.40625 -1.078125 L 24.515625 0.15625 L 23.125 -0.40625 L 22.078125 0.5625 L 21.046875 -0.40625 L 19.359375 0.6875 L 17.6875 -0.40625 L 16.3125 -0.796875 L 16.203125 -2.203125 L 15.40625 -3.6875 L 16.203125 -5.203125 L 15.4375 -6.078125 L 16.203125 -6.921875 L 15.40625 -8.59375 L 16.203125 -10.234375 L 15.234375 -11.796875 L 15.765625 -13.515625 L 14.515625 -13.078125 L 14.4375 -14.359375 L 13.484375 -12.84375 L 11.84375 -13.515625 L 12.28125 -11.953125 L 11.359375 -10.5625 L 12.203125 -9.3125 L 11.359375 -8.046875 L 12.15625 -6.921875 L 11.359375 -5.84375 L 12.234375 -4.5625 L 11.359375 -3.28125 L 12.046875 -2 L 11.28125 -0.71875 L 10 0.515625 L 8.4375 -0.40625 L 7.5625 0.84375 L 6.71875 -0.40625 L 5.6875 1 L 4.640625 -0.40625 L 3.765625 0.40625 Z M 7.84375 -26.515625 L 6.84375 -26.921875 L 6.515625 -25.921875 L 7.125 -25.203125 L 8.078125 -25.5625 Z M 8.125 -23 L 5.515625 -22.203125 L 4.28125 -19.875 L 6.765625 -17.875 L 9.125 -20.046875 Z M 17.15625 -19.5625 L 16.59375 -19.875 L 16.359375 -19.28125 L 16.6875 -18.921875 L 17.078125 -19.078125 Z M 22.71875 -15.875 L 22.234375 -16.15625 L 21.6875 -15.875 L 21.921875 -15.234375 L 22.59375 -15.28125 Z M 22 -11.796875 L 19.59375 -11.28125 L 20 -8.515625 L 22.4375 -8.4375 L 23.71875 -10.359375 Z M 8.484375 -11.71875 L 5.875 -10.6875 L 5.71875 -7.6875 L 8.71875 -7.078125 L 9.71875 -9.484375 Z M 4.234375 -10.28125 L 3.765625 -10.515625 L 3.15625 -10.234375 L 3.484375 -9.5625 L 4.078125 -9.765625 Z M 24.953125 -7.40625 L 24.640625 -7.59375 L 24.5625 -7.234375 L 24.6875 -6.921875 L 25 -7.078125 Z M 5.4375 -5.4375 L 4.640625 -6.28125 L 3.359375 -5.640625 L 4.078125 -4.4375 L 5.4375 -4.078125 Z M 7.59375 -5.515625 L 6.921875 -5.484375 L 6.953125 -4.84375 L 7.484375 -4.28125 L 8.046875 -4.921875 Z M 18.765625 -5.40625 L 18.40625 -5.3125 L 18.28125 -5.078125 L 18.484375 -4.71875 L 18.84375 -4.953125 Z M 21.796875 -3.921875 L 21.40625 -4.125 L 20.921875 -3.875 L 21.125 -3.359375 L 21.71875 -3.40625 Z M 10 -3.046875 L 8.875 -2.765625 L 8.875 -1.71875 L 9.765625 -1.28125 L 10.796875 -2 Z M 6.515625 -2.84375 L 6.15625 -2.953125 L 6.15625 -2.5625 L 6.40625 -2.3125 L 6.796875 -2.515625 Z M 6.515625 -2.84375 "/></g></g></g><g fill="#002f6d" fill-opacity="1"><g transform="translate(134.244698, 195.971706)"><g><path d="M 11.515625 -0.4375 L 9.796875 0.046875 L 8.359375 -1.046875 L 6.40625 -0.515625 L 5.4375 -2.3125 L 4.125 -2 L 4.046875 -3.359375 L 1.875 -3.796875 L 2.234375 -5.953125 L 0.515625 -6.765625 L 1.71875 -8.15625 L 2.484375 -9.4375 L 3.71875 -8.5625 L 5.203125 -9.5625 L 6.71875 -8.5625 L 8.28125 -9.4375 L 9.875 -8.5625 L 11.28125 -8.640625 L 11.5625 -7.28125 L 13.15625 -7.6875 L 14.4375 -6.5625 L 14.84375 -7.953125 L 16.234375 -7.5625 L 15.3125 -9.28125 L 17 -10.28125 L 16.125 -10.796875 L 16.40625 -11.796875 L 14.5625 -11.515625 L 13.484375 -13.046875 L 12.046875 -11.640625 L 10.125 -12.078125 L 9.078125 -11.40625 L 8.046875 -12.078125 L 7.046875 -11.28125 L 6 -12.078125 L 4.796875 -11.40625 L 3.59375 -12.078125 L 2.6875 -12.484375 L 3.3125 -13.234375 L 1.921875 -14.4375 L 3.5625 -15.28125 L 2.28125 -17.125 L 3.921875 -18.640625 L 3.203125 -19.6875 L 4.125 -20.515625 L 2.765625 -21.484375 L 4.3125 -22.125 L 3.046875 -23.40625 L 4.5625 -24.3125 L 4.28125 -26.046875 L 5.5625 -27.203125 L 7.234375 -28.28125 L 8.921875 -27.203125 L 10.4375 -28.640625 L 11.953125 -27.203125 L 12.921875 -28.203125 L 13.875 -27.203125 L 15.125 -28.15625 L 16.40625 -27.203125 L 17.28125 -28.6875 L 18.15625 -27.203125 L 19.203125 -28.640625 L 20.234375 -27.203125 L 21.84375 -28.078125 L 23.4375 -27.203125 L 24.796875 -26.640625 L 23.71875 -25.6875 L 24.71875 -24.15625 L 23.71875 -22.6875 L 23.640625 -21.234375 L 22.15625 -21 L 20.875 -20.125 L 19.640625 -21 L 18.359375 -20.28125 L 17.078125 -21 L 15.484375 -20.046875 L 13.921875 -21 L 12.875 -20.078125 L 11.84375 -21 L 11.875 -19.921875 L 10.875 -19.5625 L 11.59375 -18.046875 L 10.5625 -16.71875 L 11.3125 -17.59375 L 12.28125 -16.953125 L 13.59375 -18.125 L 15.359375 -17.875 L 16.40625 -18.484375 L 17.4375 -17.875 L 18.359375 -18.59375 L 19.046875 -17.640625 L 20.796875 -17.59375 L 22 -16.3125 L 23.484375 -16.875 L 23.234375 -15.28125 L 25.3125 -15.125 L 24.875 -13.078125 L 26.5625 -12.40625 L 25.640625 -10.796875 L 26.71875 -10.078125 L 25.765625 -9.203125 L 26.875 -8.046875 L 25.484375 -7.28125 L 26.28125 -5.71875 L 24.59375 -5.203125 L 24.953125 -3.359375 L 23.078125 -3.3125 L 22.28125 -1.59375 L 20.359375 -1.59375 L 20.046875 -0.203125 L 18.875 -1.046875 L 17.484375 0.765625 L 15.515625 -0.40625 L 14.6875 0.515625 Z M 19.078125 -26.125 L 17.515625 -26.4375 L 17.15625 -25 L 18.078125 -24.125 L 18.875 -24.875 Z M 15.59375 -23.359375 L 14.59375 -23.6875 L 13.765625 -23.078125 L 14.28125 -22.125 L 15.28125 -22.359375 Z M 12.4375 -22.28125 L 12.078125 -22.640625 L 11.640625 -22.203125 L 11.921875 -21.59375 L 12.4375 -21.84375 Z M 18.078125 -15.765625 L 17.59375 -16.078125 L 17.3125 -15.640625 L 17.4375 -15.125 L 18 -15.234375 Z M 6.59375 -15.078125 L 5.3125 -14.203125 L 5.6875 -12.59375 L 7.3125 -12.6875 L 7.6875 -14.078125 Z M 18 -12.5625 L 17.6875 -12.5625 L 17.59375 -12.203125 L 17.921875 -12.078125 L 18.203125 -12.3125 Z M 18.484375 -9.59375 L 18 -10.125 L 17.4375 -9.765625 L 17.484375 -9.078125 L 18.125 -9.15625 Z M 24.359375 -8.515625 L 22.953125 -8.765625 L 21.765625 -8.078125 L 22.484375 -6.5625 L 23.796875 -7.203125 Z M 20.71875 -7.203125 L 20.15625 -7.203125 L 19.796875 -6.765625 L 20.28125 -6.3125 L 20.71875 -6.6875 Z M 5.765625 -6.078125 L 4.765625 -5 L 5.046875 -3.796875 L 6.515625 -3.515625 L 7 -5.078125 Z M 20.71875 -3.875 L 20.15625 -3.640625 L 20.125 -2.84375 L 21.046875 -2.5625 L 21.203125 -3.4375 Z M 16.125 -3.125 L 15.359375 -3.796875 L 14.84375 -2.953125 L 15.15625 -2.28125 L 16.078125 -2.203125 Z M 16.125 -3.125 "/></g></g></g><g fill="#002f6d" fill-opacity="1"><g transform="translate(159.961954, 195.971706)"><g><path d="M 3 -2.359375 L 1.4375 -3.484375 L 3 -4.59375 L 1.4375 -5.796875 L 3 -7 L 2 -8.484375 L 3 -10 L 2 -10.875 L 3 -11.765625 L 1.640625 -12.953125 L 3 -14.15625 L 2.15625 -15.6875 L 3 -17.203125 L 2 -18.3125 L 3 -19.4375 L 1.59375 -20.59375 L 3 -21.796875 L 2.15625 -23.078125 L 3 -24.359375 L 1.953125 -25.5625 L 3 -26.765625 L 4.046875 -27.765625 L 5.359375 -27.203125 L 6.640625 -28.484375 L 7.921875 -27.203125 L 9.046875 -28 L 10.15625 -27.203125 L 11.28125 -28.078125 L 12.40625 -27.203125 L 13.28125 -28.6875 L 14.15625 -27.203125 L 15.765625 -28.359375 L 17.359375 -27.203125 L 18.484375 -28.640625 L 19.59375 -27.203125 L 20.5625 -28.515625 L 21.515625 -27.203125 L 22.953125 -27.5625 L 23.71875 -26.28125 L 25.203125 -25.484375 L 23.71875 -24.6875 L 24.796875 -23.078125 L 23.71875 -21.484375 L 23.59375 -20.359375 L 22.484375 -20.5625 L 20.953125 -19.921875 L 19.484375 -20.5625 L 18.4375 -19.765625 L 17.40625 -20.5625 L 15.875 -19.484375 L 14.359375 -20.5625 L 13.515625 -19.5625 L 12.640625 -20.5625 L 12.640625 -19.078125 L 11.203125 -18.84375 L 12.078125 -17.40625 L 11.203125 -16 L 12.640625 -16.953125 L 14.078125 -16 L 15.640625 -17 L 17.234375 -16 L 18.6875 -16.953125 L 20.078125 -16 L 21.6875 -16.515625 L 22.921875 -15.40625 L 23.921875 -14.59375 L 22.921875 -13.796875 L 24 -12.5625 L 22.921875 -11.28125 L 23 -9.953125 L 21.84375 -9.40625 L 20.40625 -8.3125 L 19 -9.40625 L 17.3125 -7.921875 L 15.640625 -9.40625 L 14.515625 -7.953125 L 13.4375 -9.40625 L 12.4375 -8.28125 L 11.203125 -9.078125 L 12.640625 -7.40625 L 11.203125 -5.71875 L 12.40625 -4.28125 L 11.203125 -2.84375 L 11.5625 -1.4375 L 10.28125 -0.796875 L 9.15625 0.5625 L 8.046875 -0.796875 L 7.046875 0.640625 L 6 -0.796875 L 4.640625 0.046875 Z M 7.6875 -26.359375 L 7.40625 -26.640625 L 7.046875 -26.5625 L 7.125 -26.203125 L 7.4375 -26 Z M 11.3125 -25.953125 L 10.953125 -26.5625 L 10.3125 -26.203125 L 10.4375 -25.59375 L 11.078125 -25.15625 Z M 17.6875 -26.15625 L 17.203125 -25.921875 L 17.28125 -25.40625 L 17.796875 -25.234375 L 18.046875 -25.71875 Z M 5.765625 -25.765625 L 4.765625 -24.640625 L 4.6875 -23.125 L 6.40625 -23.046875 L 7.046875 -24.640625 Z M 15.203125 -24.046875 L 13.875 -25.234375 L 12.203125 -24 L 13.234375 -22.359375 L 15.046875 -22.3125 Z M 21.4375 -22.078125 L 20.71875 -22.3125 L 20.4375 -21.59375 L 20.921875 -20.953125 L 21.640625 -21.359375 Z M 8.4375 -20.875 L 7.15625 -20.6875 L 6.484375 -19.765625 L 7.40625 -18.71875 L 8.234375 -19.640625 Z M 6.15625 -17.515625 L 5.40625 -18.5625 L 4.40625 -17.765625 L 4.515625 -16.5625 L 5.796875 -16.359375 Z M 21.796875 -14.765625 L 21.484375 -14.515625 L 21.515625 -14.125 L 21.875 -14.234375 L 22 -14.4375 Z M 15.40625 -14.359375 L 13.3125 -14.40625 L 12.765625 -12 L 15.046875 -10.921875 L 16.921875 -12.640625 Z M 7.640625 -12.484375 L 6.046875 -11.046875 L 5.71875 -9.046875 L 7.765625 -9.125 L 9.28125 -10.5625 Z M 11.59375 -11 L 11.234375 -11.4375 L 10.515625 -11.40625 L 10.765625 -10.71875 L 11.3125 -10.40625 Z M 6.6875 -5.359375 L 5.6875 -5.921875 L 4.515625 -6 L 4.953125 -4.875 L 5.84375 -4.40625 Z M 9.28125 -5.203125 L 7.640625 -3.953125 L 7.71875 -2.203125 L 9.5625 -1.71875 L 10.203125 -3.359375 Z M 9.28125 -5.203125 "/></g></g></g><g fill="#002f6d" fill-opacity="1"><g transform="translate(183.919386, 195.971706)"><g><path d="M 2.40625 -26.28125 L 1.59375 -27.359375 L 2.40625 -28.4375 L 3.28125 -29.953125 L 4.953125 -29.59375 L 5.765625 -30.6875 L 6.515625 -29.59375 L 8.203125 -30.71875 L 9.84375 -29.59375 L 11.125 -28.875 L 10.515625 -27.515625 L 11.484375 -25.875 L 10.515625 -24.234375 L 9.953125 -23.078125 L 8.71875 -23.40625 L 7.484375 -22.4375 L 6.234375 -23.40625 L 4.640625 -22.59375 Z M 5.71875 -28.125 L 4.5625 -28.359375 L 4.125 -27.40625 L 4.640625 -26.359375 L 5.6875 -26.953125 Z M 7.515625 -26.765625 L 7.28125 -26.875 L 7 -26.71875 L 7.15625 -26.3125 L 7.515625 -26.40625 Z M 2.203125 -1.40625 L 1.28125 -2.84375 L 2.203125 -4.28125 L 1.203125 -5.40625 L 2.203125 -6.484375 L 0.921875 -7.4375 L 2.203125 -8.40625 L 1.3125 -9.921875 L 2.203125 -11.4375 L 0.71875 -12.40625 L 2.203125 -13.359375 L 1.40625 -14.3125 L 2.203125 -15.234375 L 1 -16.359375 L 2.203125 -17.484375 L 1.40625 -18.28125 L 2.203125 -19.078125 L 2.5625 -20.3125 L 3.84375 -20.40625 L 4.796875 -21.40625 L 5.765625 -20.40625 L 7.078125 -21.40625 L 8.4375 -20.40625 L 9.5625 -21 L 10.515625 -20.203125 L 11.6875 -18.765625 L 10.71875 -17.15625 L 11.59375 -16.203125 L 10.71875 -15.234375 L 11.796875 -13.6875 L 10.71875 -12.078125 L 12.15625 -11.046875 L 10.71875 -10 L 11.953125 -8.875 L 10.71875 -7.765625 L 12.234375 -6.15625 L 10.71875 -4.59375 L 12.234375 -3.15625 L 10.71875 -1.71875 L 11.078125 -0.40625 L 9.71875 -0.40625 L 8.515625 0.84375 L 7.3125 -0.40625 L 6.078125 0.640625 L 4.796875 -0.40625 L 3.84375 0.875 Z M 4.921875 -19.71875 L 3.84375 -19.234375 L 3.59375 -18.28125 L 4.5625 -17.5625 L 5.71875 -18.484375 Z M 9.640625 -17.796875 L 8.359375 -17.953125 L 7.71875 -16.640625 L 8.921875 -15.515625 L 10.359375 -16.484375 Z M 7.4375 -15.234375 L 5.078125 -15.515625 L 3.28125 -14.28125 L 4.59375 -12.203125 L 6.484375 -13.078125 Z M 9.484375 -13.640625 L 9.203125 -13.765625 L 8.875 -13.6875 L 9 -13.3125 L 9.359375 -13.3125 Z M 7.078125 -10 L 5.125 -9.765625 L 4.875 -7.953125 L 6.3125 -7.15625 L 7.921875 -8.125 Z M 9.078125 -5.6875 L 8.28125 -6 L 7.765625 -5.15625 L 8.515625 -4.5625 L 9.203125 -4.953125 Z M 5.6875 -5.59375 L 4.515625 -5.59375 L 4.640625 -4.28125 L 5.765625 -4.046875 L 6.6875 -4.953125 Z M 7.359375 -3.5625 L 7.046875 -3.40625 L 7.234375 -3.125 L 7.484375 -3.078125 L 7.59375 -3.359375 Z M 10.28125 -2.765625 L 9.484375 -3.3125 L 9.046875 -2.5625 L 9.078125 -1.640625 L 9.953125 -1.953125 Z M 10.28125 -2.765625 "/></g></g></g><g fill="#002f6d" fill-opacity="1"><g transform="translate(194.958104, 195.971706)"><g><path d="M 9.078125 -0.4375 L 7.40625 -0.71875 L 7.953125 -2.3125 L 6.3125 -3.203125 L 6.84375 -5 L 4.921875 -5.71875 L 5.765625 -7.640625 L 3.953125 -8.078125 L 4.921875 -9.6875 L 3.203125 -10.640625 L 3.765625 -12.484375 L 2.15625 -12.953125 L 2.953125 -14.40625 L 1.640625 -15.3125 L 1.921875 -16.875 L 0.15625 -17.71875 L 0.84375 -19.515625 L 0.875 -20.640625 L 1.953125 -20.40625 L 3.59375 -21.921875 L 5.234375 -20.40625 L 6.953125 -21.40625 L 8.59375 -20.28125 L 10.203125 -19.953125 L 9.4375 -18.515625 L 10.6875 -17.71875 L 10.15625 -16.40625 L 11.4375 -15.3125 L 11.125 -13.6875 L 12.4375 -13.125 L 11.71875 -11.84375 L 12.515625 -11.046875 L 13.515625 -12 L 13 -13.125 L 14.078125 -13.6875 L 13.515625 -14.875 L 14.71875 -15.484375 L 14.59375 -17.28125 L 15.796875 -18.6875 L 16.3125 -20.3125 L 18.078125 -20.40625 L 19.40625 -21.765625 L 20.71875 -20.40625 L 21.515625 -21.515625 L 22.3125 -20.40625 L 23.640625 -20.4375 L 24.234375 -19.234375 L 24.796875 -17.5625 L 23.234375 -16.765625 L 23.6875 -14.84375 L 22 -13.796875 L 22.875 -11.875 L 20.921875 -11.15625 L 21.515625 -9.359375 L 19.796875 -8.515625 L 19.921875 -6.640625 L 18.515625 -5.4375 L 19.515625 -3.953125 L 17.796875 -3.640625 L 18.28125 -1.921875 L 16.6875 -1 L 16.203125 0.3125 L 15 -0.40625 L 13.796875 0.84375 L 12.59375 -0.40625 L 11 0.5625 Z M 20.6875 -19.515625 L 19.640625 -19.59375 L 19.234375 -18.515625 L 20.203125 -17.953125 L 21.125 -18.5625 Z M 19.921875 -15.15625 L 19.6875 -15.28125 L 19.484375 -15.125 L 19.5625 -14.875 L 19.875 -14.875 Z M 4.71875 -14.953125 L 4.125 -14.5625 L 4.203125 -13.953125 L 4.765625 -13.796875 L 4.953125 -14.3125 Z M 20.6875 -13.40625 L 20.203125 -13.046875 L 19.921875 -12.515625 L 20.5625 -12.234375 L 20.84375 -12.796875 Z M 11 -12.15625 L 10.59375 -12.203125 L 10.5625 -11.765625 L 10.875 -11.5625 L 11.234375 -11.796875 Z M 8.234375 -12 L 7.4375 -12.078125 L 7.078125 -11.125 L 8.046875 -10.71875 L 8.640625 -11.359375 Z M 10.125 -7.84375 L 8.875 -9.40625 L 6.796875 -8.6875 L 7.234375 -6.515625 L 9.40625 -5.765625 Z M 14.640625 -8.875 L 12.921875 -8.71875 L 12.796875 -7.3125 L 13.71875 -6.6875 L 14.875 -7.203125 Z M 17.28125 -7.515625 L 16.359375 -7 L 16.765625 -6.15625 L 17.59375 -5.796875 L 17.875 -6.71875 Z M 17.28125 -7.515625 "/></g></g></g><g fill="#002f6d" fill-opacity="1"><g transform="translate(218.2756, 195.971706)"><g><path d="M 11.765625 0 L 10.515625 1.28125 L 9.515625 -0.234375 L 7.765625 0.6875 L 6.765625 -1.046875 L 5.3125 -0.484375 L 5.078125 -2 L 3.046875 -2.15625 L 3.046875 -4.203125 L 1.234375 -4.71875 L 2.046875 -6.40625 L 0.640625 -7.515625 L 1.5625 -9.078125 L 0.6875 -10.078125 L 1.515625 -11.125 L 0.28125 -12.15625 L 1.71875 -12.875 L 1.125 -14.59375 L 2.640625 -15.640625 L 2.359375 -16.953125 L 3.6875 -17.28125 L 3.5625 -19.046875 L 5.3125 -18.796875 L 6.15625 -20.59375 L 8.078125 -20.15625 L 8.5625 -21.84375 L 9.796875 -20.5625 L 11.078125 -21.484375 L 12.515625 -20.796875 L 14.15625 -21.953125 L 15.5625 -20.515625 L 17.28125 -21.359375 L 18.15625 -19.640625 L 19.515625 -20.078125 L 19.796875 -18.6875 L 21.40625 -18.4375 L 21.59375 -16.84375 L 23.15625 -16.515625 L 22.640625 -15.046875 L 24.15625 -14.046875 L 23.359375 -12.40625 L 25 -11.765625 L 23.515625 -10.796875 L 23.359375 -9.359375 L 22.203125 -8.4375 L 21.3125 -7.84375 L 20.4375 -8.4375 L 19.203125 -7.796875 L 17.921875 -8.4375 L 16.953125 -7.640625 L 16 -8.4375 L 14.3125 -7.796875 L 12.6875 -8.4375 L 12.078125 -7.046875 L 10.5625 -7.046875 L 11.484375 -6.515625 L 11.125 -5.515625 L 12.515625 -6.484375 L 14.15625 -6.078125 L 15.359375 -7.046875 L 16.6875 -6.28125 L 18.046875 -7.28125 L 19.359375 -6.28125 L 20.875 -7.15625 L 22.359375 -6.28125 L 23.234375 -5.046875 L 22.203125 -3.921875 L 22 -2.4375 L 20.484375 -2.234375 L 19.640625 -0.5625 L 17.796875 -0.84375 L 17.046875 0.4375 L 15.765625 -0.28125 L 14.28125 1.234375 Z M 11.4375 -17.640625 L 10.515625 -18.796875 L 9.046875 -18.3125 L 9 -16.5625 L 10.5625 -16.640625 Z M 7.40625 -15.84375 L 6.4375 -18.125 L 3.71875 -17.203125 L 4.6875 -15.046875 L 6.3125 -14.078125 Z M 13.3125 -17.640625 L 12.875 -17.484375 L 12.5625 -16.921875 L 13.3125 -16.515625 L 13.5625 -17.203125 Z M 17.15625 -17.078125 L 15.59375 -17.515625 L 15 -16.40625 L 15.484375 -15.5625 L 16.921875 -15.359375 Z M 12.28125 -12.640625 L 13.078125 -13.28125 L 13.875 -12.640625 L 13.5625 -13.515625 L 14.515625 -13.5625 L 13.5625 -14.125 L 14.125 -15.078125 L 13.203125 -15.125 L 12.84375 -15.953125 L 12.28125 -15.078125 L 11.3125 -15.59375 L 11.40625 -14.6875 L 10.59375 -14.203125 L 11.046875 -13.40625 Z M 9.125 -12.796875 L 8.4375 -12.515625 L 8.5625 -11.875 L 9.15625 -11.515625 L 9.640625 -12.15625 Z M 18.921875 -11.796875 L 18.3125 -12.3125 L 17.6875 -11.6875 L 18.078125 -10.875 L 18.953125 -11 Z M 21.484375 -12 L 21 -11.953125 L 21 -11.484375 L 21.40625 -11.28125 L 21.84375 -11.640625 Z M 10.765625 -11.6875 L 10.28125 -11.6875 L 9.953125 -11.234375 L 10.4375 -10.953125 L 10.921875 -11.15625 Z M 4.046875 -10.5625 L 2.6875 -9.875 L 3.28125 -8.4375 L 4.59375 -8.515625 L 4.765625 -9.640625 Z M 11.125 -9.84375 L 10.40625 -9.6875 L 10.765625 -9 L 11.4375 -8.765625 L 11.71875 -9.484375 Z M 19.3125 -5.71875 L 18.046875 -5.765625 L 17.84375 -4.484375 L 18.84375 -4.203125 L 19.953125 -4.59375 Z M 8.203125 -5.15625 L 7.046875 -5.40625 L 6.4375 -4.6875 L 7 -4 L 8.125 -3.84375 Z M 13.40625 -3.921875 L 12.765625 -3.5625 L 12.84375 -2.796875 L 13.640625 -2.71875 L 13.84375 -3.359375 Z M 13.40625 -3.921875 "/></g></g></g><g fill="#002f6d" fill-opacity="1"><g transform="translate(241.313127, 195.971706)"><g><path d="M 0.5625 -0.953125 L 0.078125 -2.640625 L 1.84375 -2.921875 L 1.640625 -4.046875 L 2.71875 -4.234375 L 2.046875 -5.796875 L 3.71875 -5.640625 L 3.5625 -7.84375 L 5.640625 -8.40625 L 5.046875 -10.15625 L 6.921875 -10.203125 L 5.078125 -11.078125 L 5.765625 -12.953125 L 4.484375 -13.234375 L 4.71875 -14.5625 L 3.15625 -14.5625 L 3.765625 -16 L 2.15625 -16.28125 L 2.515625 -17.84375 L 1.078125 -18.046875 L 1.4375 -19.4375 L 1.953125 -20.6875 L 3.28125 -20.40625 L 4.15625 -21.3125 L 5.046875 -20.40625 L 6.28125 -21.234375 L 7.5625 -20.40625 L 8.4375 -21.84375 L 9.3125 -20.40625 L 10.6875 -20.125 L 10.796875 -18.765625 L 12.359375 -18.40625 L 12.078125 -16.796875 L 13 -16.953125 L 12.921875 -16.046875 L 13.203125 -17.796875 L 14.71875 -18.765625 L 15.28125 -20.359375 L 17 -20.40625 L 18.046875 -21.921875 L 19.078125 -20.40625 L 20.71875 -21.203125 L 22.40625 -20.40625 L 23.484375 -21.6875 L 23.875 -20.046875 L 24.40625 -18.046875 L 22.40625 -17.4375 L 22.5625 -15.3125 L 20.515625 -14.71875 L 20.921875 -12.953125 L 19.15625 -12.71875 L 19.40625 -11.15625 L 17.875 -10.640625 L 19.515625 -9.921875 L 19.640625 -8.15625 L 21.40625 -7.3125 L 21.59375 -5.40625 L 22.765625 -5.15625 L 22.59375 -3.953125 L 24.203125 -4.125 L 23.5625 -2.6875 L 25.203125 -2.203125 L 24.515625 -0.640625 L 23 0.28125 L 21.359375 -0.40625 L 20.5625 1.125 L 19.765625 -0.40625 L 18.3125 0.84375 L 16.875 -0.40625 L 15.4375 -0.515625 L 14.875 -1.84375 L 12.84375 -2.078125 L 13.359375 -4.078125 L 12.4375 -2.765625 L 11.84375 -4.234375 L 11.796875 -2.640625 L 10.28125 -2.078125 L 10.3125 -0.71875 L 8.953125 -0.4375 L 7.4375 1.078125 L 5.875 -0.40625 L 4.484375 0.59375 L 3.046875 -0.40625 L 2.078125 0.84375 Z M 2.59375 -19.84375 L 2.125 -19.921875 L 2.046875 -19.515625 L 2.28125 -19.234375 L 2.71875 -19.359375 Z M 9.953125 -17.3125 L 8.765625 -19.3125 L 6.765625 -18.15625 L 6.4375 -15.84375 L 8.796875 -15.6875 Z M 19.921875 -17.71875 L 18.203125 -17.84375 L 17.078125 -16.4375 L 18.515625 -15.4375 L 19.796875 -16.046875 Z M 15.15625 -15.40625 L 14 -15.6875 L 13.59375 -14.5625 L 14.3125 -13.359375 L 15.59375 -14.203125 Z M 8.921875 -12.234375 L 7.875 -12.078125 L 7.28125 -11.078125 L 8.359375 -10.6875 L 8.953125 -11.234375 Z M 15.71875 -11.3125 L 14.234375 -11.796875 L 13.953125 -10.40625 L 14.640625 -9.5625 L 16 -9.875 Z M 10.359375 -7.875 L 8.796875 -8.484375 L 7.921875 -7.234375 L 8.59375 -6.046875 L 9.921875 -6.359375 Z M 14.4375 -7.4375 L 14.28125 -7.6875 L 13.953125 -7.5625 L 14 -7.15625 L 14.3125 -7.234375 Z M 21.359375 -3.515625 L 20.6875 -3.6875 L 20.640625 -2.953125 L 21.15625 -2.765625 L 21.71875 -3 Z M 21.359375 -3.515625 "/></g></g></g></svg>